<svg width="32" height="12" viewBox="0 0 32 12" fill="none" xmlns="http://www.w3.org/2000/svg">
<path d="M5.592 0.0319998L6.474 0.424L1.364 11.96L0.482 11.568L5.592 0.0319998ZM11.1936 8.964H13.1536V2.188L13.2936 1.362L12.7336 2.02L11.1936 3.126L10.6616 2.412L13.7416 0.0319998H14.2456V8.964H16.1636V10H11.1936V8.964ZM17.9125 5.1C17.9125 3.42 18.1832 2.15533 18.7245 1.306C19.2752 0.456666 20.0732 0.0319998 21.1185 0.0319998C22.2479 0.0319998 23.0645 0.452 23.5685 1.292C24.0819 2.12267 24.3385 3.392 24.3385 5.1C24.3385 6.78 24.0632 8.04467 23.5125 8.894C22.9712 9.74333 22.1732 10.168 21.1185 10.168C20.0079 10.168 19.1959 9.72467 18.6825 8.838C18.1692 7.95133 17.9125 6.70533 17.9125 5.1ZM19.0745 5.1C19.0745 5.70667 19.1119 6.262 19.1865 6.766C19.2705 7.26067 19.3965 7.69 19.5645 8.054C19.7325 8.40867 19.9425 8.68867 20.1945 8.894C20.4559 9.09 20.7639 9.188 21.1185 9.188C21.8279 9.188 22.3459 8.86133 22.6725 8.208C23.0085 7.54533 23.1765 6.50933 23.1765 5.1C23.1765 4.50267 23.1392 3.952 23.0645 3.448C22.9992 2.944 22.8825 2.51 22.7145 2.146C22.5559 1.782 22.3459 1.502 22.0845 1.306C21.8232 1.11 21.5012 1.012 21.1185 1.012C20.4185 1.012 19.9005 1.34333 19.5645 2.006C19.2379 2.66867 19.0745 3.7 19.0745 5.1ZM25.5415 5.1C25.5415 3.42 25.8121 2.15533 26.3535 1.306C26.9041 0.456666 27.7021 0.0319998 28.7475 0.0319998C29.8768 0.0319998 30.6935 0.452 31.1975 1.292C31.7108 2.12267 31.9675 3.392 31.9675 5.1C31.9675 6.78 31.6921 8.04467 31.1415 8.894C30.6001 9.74333 29.8021 10.168 28.7475 10.168C27.6368 10.168 26.8248 9.72467 26.3115 8.838C25.7981 7.95133 25.5415 6.70533 25.5415 5.1ZM26.7035 5.1C26.7035 5.70667 26.7408 6.262 26.8155 6.766C26.8995 7.26067 27.0255 7.69 27.1935 8.054C27.3615 8.40867 27.5715 8.68867 27.8235 8.894C28.0848 9.09 28.3928 9.188 28.7475 9.188C29.4568 9.188 29.9748 8.86133 30.3015 8.208C30.6375 7.54533 30.8055 6.50933 30.8055 5.1C30.8055 4.50267 30.7681 3.952 30.6935 3.448C30.6281 2.944 30.5115 2.51 30.3435 2.146C30.1848 1.782 29.9748 1.502 29.7135 1.306C29.4521 1.11 29.1301 1.012 28.7475 1.012C28.0475 1.012 27.5295 1.34333 27.1935 2.006C26.8668 2.66867 26.7035 3.7 26.7035 5.1Z" fill="#BBC4DA"/>
</svg>
