<svg width="75" height="54" viewBox="0 0 75 54" fill="none" xmlns="http://www.w3.org/2000/svg">
<path d="M0.24 17.368C0.24 14.92 0.6 12.664 1.32 10.6C2.088 8.536 3.168 6.784 4.56 5.344C6 3.856 7.728 2.704 9.744 1.888C11.808 1.024 14.16 0.591997 16.8 0.591997C22.224 0.591997 26.472 2.224 29.544 5.488C32.664 8.704 34.224 13.408 34.224 19.6C34.224 25.168 33.504 29.992 32.064 34.072C30.672 38.104 28.776 41.488 26.376 44.224C24.024 46.912 21.288 48.976 18.168 50.416C15.048 51.856 11.76 52.72 8.304 53.008L6.288 45.664C8.928 45.328 11.28 44.68 13.344 43.72C15.408 42.76 17.184 41.584 18.672 40.192C20.16 38.752 21.36 37.144 22.272 35.368C23.232 33.544 23.904 31.6 24.288 29.536C23.136 30.784 21.888 31.648 20.544 32.128C19.248 32.608 17.496 32.848 15.288 32.848C13.464 32.848 11.64 32.536 9.816 31.912C8.04 31.288 6.432 30.352 4.992 29.104C3.6 27.808 2.448 26.2 1.536 24.28C0.672 22.312 0.24 20.008 0.24 17.368ZM9.312 16.864C9.312 19.6 10.08 21.664 11.616 23.056C13.152 24.448 15.072 25.144 17.376 25.144C19.344 25.144 20.952 24.832 22.2 24.208C23.448 23.584 24.408 22.816 25.08 21.904C25.224 20.896 25.296 19.936 25.296 19.024C25.296 17.68 25.128 16.36 24.792 15.064C24.456 13.768 23.928 12.616 23.208 11.608C22.536 10.6 21.648 9.808 20.544 9.232C19.488 8.608 18.216 8.296 16.728 8.296C14.376 8.296 12.552 9.064 11.256 10.6C9.96 12.088 9.312 14.176 9.312 16.864ZM42.2436 39.688C42.2436 38.008 42.4596 36.52 42.8916 35.224C43.3236 33.88 43.9236 32.68 44.6916 31.624C45.5076 30.52 46.4436 29.536 47.4996 28.672C48.6036 27.808 49.7796 27.016 51.0276 26.296C48.6756 24.808 46.8276 23.104 45.4836 21.184C44.1396 19.216 43.4676 16.792 43.4676 13.912C43.4676 12.04 43.8036 10.288 44.4756 8.656C45.1956 7.024 46.2036 5.608 47.4996 4.408C48.8436 3.208 50.4516 2.272 52.3236 1.6C54.1956 0.927997 56.3076 0.591997 58.6596 0.591997C60.8196 0.591997 62.7876 0.879997 64.5636 1.456C66.3396 2.032 67.8516 2.848 69.0996 3.904C70.3956 4.96 71.3796 6.256 72.0516 7.792C72.7716 9.28 73.1316 10.936 73.1316 12.76C73.1316 15.592 72.4836 17.992 71.1876 19.96C69.9396 21.928 68.0916 23.728 65.6436 25.36C68.5236 27.04 70.6836 28.888 72.1236 30.904C73.6116 32.92 74.3556 35.512 74.3556 38.68C74.3556 40.84 73.9476 42.808 73.1316 44.584C72.3636 46.312 71.2596 47.8 69.8196 49.048C68.3796 50.296 66.6516 51.28 64.6356 52C62.6196 52.672 60.4116 53.008 58.0116 53.008C55.6116 53.008 53.4276 52.672 51.4596 52C49.5396 51.376 47.8836 50.488 46.4916 49.336C45.1476 48.184 44.0916 46.792 43.3236 45.16C42.6036 43.528 42.2436 41.704 42.2436 39.688ZM65.4276 38.752C65.4276 37.648 65.1636 36.64 64.6356 35.728C64.1076 34.816 63.4116 34 62.5476 33.28C61.7316 32.512 60.7956 31.816 59.7396 31.192C58.7316 30.568 57.6996 29.968 56.6436 29.392C54.3876 30.688 52.8276 32.104 51.9636 33.64C51.1476 35.128 50.7396 36.616 50.7396 38.104C50.7396 40.024 51.3876 41.68 52.6836 43.072C54.0276 44.416 55.8756 45.088 58.2276 45.088C60.3876 45.088 62.1156 44.56 63.4116 43.504C64.7556 42.448 65.4276 40.864 65.4276 38.752ZM52.3956 14.056C52.3956 15.208 52.6116 16.216 53.0436 17.08C53.4756 17.944 54.0516 18.712 54.7716 19.384C55.5396 20.008 56.3796 20.608 57.2916 21.184C58.2516 21.712 59.2356 22.216 60.2436 22.696C63.1236 20.248 64.5636 17.56 64.5636 14.632C64.5636 12.616 63.9636 11.104 62.7636 10.096C61.6116 9.04 60.1956 8.512 58.5156 8.512C56.4036 8.512 54.8436 9.064 53.8356 10.168C52.8756 11.272 52.3956 12.568 52.3956 14.056Z" fill="#01BFFF"/>
</svg>
